<svg width="57" height="57" viewBox="0 0 57 57" fill="none" xmlns="http://www.w3.org/2000/svg">
<path fill-rule="evenodd" clip-rule="evenodd" d="M32.125 8C32.6773 8 33.125 8.44772 33.125 9V16.5C33.125 17.0523 32.6773 17.5 32.125 17.5H29.375C28.8227 17.5 28.375 17.0523 28.375 16.5V9C28.375 8.44772 28.8227 8 29.375 8H32.125ZM32.125 36.5C32.6773 36.5 33.125 36.9477 33.125 37.5V45C33.125 45.5523 32.6773 46 32.125 46H29.375C28.8227 46 28.375 45.5523 28.375 45V37.5C28.375 36.9477 28.8227 36.5 29.375 36.5H32.125ZM45.1574 15.9514C45.5479 15.5609 45.5479 14.9277 45.1574 14.5372L43.2129 12.5927C42.8224 12.2021 42.1892 12.2021 41.7987 12.5927L36.4954 17.896C36.1048 18.2865 36.1048 18.9196 36.4954 19.3102L38.4399 21.2547C38.8304 21.6452 39.4636 21.6452 39.8541 21.2547L45.1574 15.9514ZM18.2873 12.5927C18.6779 12.2022 19.311 12.2022 19.7016 12.5927L25.0049 17.896C25.3954 18.2865 25.3954 18.9197 25.0049 19.3102L23.0603 21.2548C22.6698 21.6453 22.0366 21.6453 21.6461 21.2548L16.3428 15.9515C15.9523 15.561 15.9523 14.9278 16.3428 14.5373L18.2873 12.5927ZM39.8541 32.7453C39.4636 32.3547 38.8304 32.3547 38.4399 32.7453L36.4953 34.6898C36.1048 35.0803 36.1048 35.7135 36.4953 36.104L41.7986 41.4073C42.1892 41.7978 42.8223 41.7978 43.2129 41.4073L45.1574 39.4628C45.5479 39.0723 45.5479 38.4391 45.1574 38.0486L39.8541 32.7453ZM11.75 25.625C11.75 25.0727 12.1977 24.625 12.75 24.625H20.25C20.8023 24.625 21.25 25.0727 21.25 25.625V28.375C21.25 28.9273 20.8023 29.375 20.25 29.375H12.75C12.1977 29.375 11.75 28.9273 11.75 28.375V25.625ZM41.25 24.625C40.6977 24.625 40.25 25.0727 40.25 25.625V28.375C40.25 28.9273 40.6977 29.375 41.25 29.375H48.75C49.3023 29.375 49.75 28.9273 49.75 28.375V25.625C49.75 25.0727 49.3023 24.625 48.75 24.625H41.25ZM33.125 28.1875L29.5625 24.625L7 47.1875L10.5625 50.75L33.125 28.1875Z" fill="white"/>
</svg>

