<svg width="42" height="42" viewBox="0 0 42 42" fill="none" xmlns="http://www.w3.org/2000/svg">
<path fill-rule="evenodd" clip-rule="evenodd" d="M25.1265 0C25.4248 0 25.6667 0.241853 25.6667 0.540193V8.79314C25.6667 9.09148 25.4248 9.33333 25.1265 9.33333H21.5402C21.2419 9.33333 21 9.09148 21 8.79314V0.540193C21 0.241853 21.2419 0 21.5402 0H25.1265ZM25.1265 28C25.4248 28 25.6667 28.2419 25.6667 28.5402V36.7931C25.6667 37.0915 25.4248 37.3333 25.1265 37.3333H21.5402C21.2418 37.3333 21 37.0915 21 36.7931V28.5402C21 28.2419 21.2418 28 21.5402 28H25.1265ZM37.8007 7.49902C38.0117 7.28807 38.0117 6.94603 37.8007 6.73508L35.2648 4.19919C35.0539 3.98823 34.7118 3.98823 34.5009 4.19919L28.6652 10.0349C28.4542 10.2459 28.4542 10.5879 28.6652 10.7989L31.201 13.3347C31.412 13.5457 31.754 13.5457 31.965 13.3347L37.8007 7.49902ZM11.4018 4.19971C11.6128 3.98875 11.9548 3.98875 12.1658 4.19971L18.0015 10.0354C18.2124 10.2464 18.2124 10.5884 18.0015 10.7994L15.4656 13.3353C15.2546 13.5462 14.9126 13.5462 14.7017 13.3353L8.86594 7.49954C8.65498 7.28858 8.65498 6.94655 8.86594 6.73559L11.4018 4.19971ZM31.9649 23.9985C31.7539 23.7875 31.4119 23.7875 31.2009 23.9985L28.665 26.5344C28.4541 26.7453 28.4541 27.0873 28.665 27.2983L34.5008 33.134C34.7117 33.345 35.0537 33.345 35.2647 33.134L37.8006 30.5981C38.0115 30.3872 38.0115 30.0451 37.8006 29.8342L31.9649 23.9985ZM4.66667 16.8737C4.66667 16.5753 4.90852 16.3335 5.20686 16.3335H13.4598C13.7582 16.3335 14 16.5753 14 16.8737V20.4599C14 20.7583 13.7582 21.0001 13.4598 21.0001H5.20686C4.90852 21.0001 4.66667 20.7583 4.66667 20.4599V16.8737ZM33.2069 16.3333C32.9085 16.3333 32.6667 16.5752 32.6667 16.8735V20.4598C32.6667 20.7581 32.9085 21 33.2069 21H41.4598C41.7581 21 42 20.7581 42 20.4598L42 16.8735C42 16.5752 41.7581 16.3333 41.4598 16.3333L33.2069 16.3333ZM25.6667 19.8333L22.1667 16.3333L0 38.5L3.5 42L25.6667 19.8333Z" fill="#FF5E3A"/>
</svg>

