<svg width="26" height="26" viewBox="0 0 26 26" fill="none" xmlns="http://www.w3.org/2000/svg">
<path fill-rule="evenodd" clip-rule="evenodd" d="M12.9577 24.2157C12.9577 24.2157 22.0883 18.1286 22.0883 11.0271C22.0883 8.60548 21.1263 6.28308 19.414 4.57077C17.7017 2.85845 15.3793 1.89648 12.9577 1.89648C10.5361 1.89648 8.21375 2.85845 6.50143 4.57077C4.78912 6.28308 3.82715 8.60548 3.82715 11.0271C3.82715 18.1286 12.9577 24.2157 12.9577 24.2157ZM16.0013 11.0271C16.0013 12.708 14.6386 14.0706 12.9577 14.0706C11.2768 14.0706 9.9142 12.708 9.9142 11.0271C9.9142 9.34617 11.2768 7.98354 12.9577 7.98354C14.6386 7.98354 16.0013 9.34617 16.0013 11.0271Z" fill="#6050B3"/>
<path d="M12.9577 24.2157L12.6804 24.6317C12.8483 24.7437 13.0671 24.7437 13.2351 24.6317L12.9577 24.2157ZM19.414 4.57077L19.0605 4.92432V4.92432L19.414 4.57077ZM6.50143 4.57077L6.85499 4.92432H6.85499L6.50143 4.57077ZM21.5883 11.0271C21.5883 14.3769 19.4228 17.5521 17.16 19.9406C16.0389 21.124 14.916 22.0911 14.0729 22.7625C13.6518 23.0978 13.3014 23.3586 13.0573 23.5349C12.9353 23.623 12.8399 23.69 12.7756 23.7345C12.7434 23.7568 12.719 23.7735 12.703 23.7844C12.695 23.7898 12.689 23.7939 12.6852 23.7964C12.6833 23.7977 12.682 23.7986 12.6812 23.7991C12.6808 23.7994 12.6805 23.7996 12.6804 23.7997C12.6803 23.7997 12.6803 23.7997 12.6803 23.7997C12.6803 23.7997 12.6804 23.7997 12.9577 24.2157C13.2351 24.6317 13.2352 24.6316 13.2354 24.6315C13.2355 24.6314 13.2357 24.6313 13.2359 24.6311C13.2364 24.6309 13.2369 24.6305 13.2376 24.63C13.239 24.6291 13.241 24.6278 13.2435 24.6261C13.2485 24.6227 13.2556 24.6179 13.2649 24.6116C13.2833 24.5991 13.3102 24.5807 13.345 24.5566C13.4144 24.5085 13.5152 24.4378 13.6428 24.3456C13.898 24.1613 14.261 23.891 14.6958 23.5448C15.5647 22.8529 16.7245 21.8544 17.886 20.6283C20.1885 18.1979 22.5883 14.7788 22.5883 11.0271H21.5883ZM19.0605 4.92432C20.679 6.54287 21.5883 8.73809 21.5883 11.0271H22.5883C22.5883 8.47288 21.5737 6.0233 19.7676 4.21722L19.0605 4.92432ZM12.9577 2.39648C15.2467 2.39648 17.4419 3.30577 19.0605 4.92432L19.7676 4.21722C17.9615 2.41113 15.5119 1.39648 12.9577 1.39648V2.39648ZM6.85499 4.92432C8.47353 3.30578 10.6688 2.39648 12.9577 2.39648V1.39648C10.4035 1.39648 7.95396 2.41113 6.14788 4.21722L6.85499 4.92432ZM4.32715 11.0271C4.32715 8.73809 5.23644 6.54287 6.85499 4.92432L6.14788 4.21722C4.3418 6.0233 3.32715 8.47288 3.32715 11.0271H4.32715ZM12.9577 24.2157C13.2351 23.7997 13.2352 23.7997 13.2352 23.7997C13.2352 23.7997 13.2352 23.7997 13.2351 23.7997C13.235 23.7996 13.2347 23.7994 13.2343 23.7991C13.2335 23.7986 13.2321 23.7977 13.2302 23.7964C13.2264 23.7939 13.2205 23.7898 13.2125 23.7844C13.1964 23.7735 13.172 23.7568 13.1399 23.7345C13.0756 23.69 12.9802 23.623 12.8581 23.5349C12.6141 23.3586 12.2637 23.0978 11.8425 22.7625C10.9994 22.0911 9.87657 21.124 8.75541 19.9406C6.49266 17.5521 4.32715 14.3769 4.32715 11.0271H3.32715C3.32715 14.7788 5.72692 18.1979 8.02946 20.6283C9.19095 21.8544 10.3507 22.8529 11.2196 23.5448C11.6544 23.891 12.0174 24.1613 12.2727 24.3456C12.4003 24.4378 12.5011 24.5085 12.5705 24.5566C12.6052 24.5807 12.6321 24.5991 12.6506 24.6116C12.6599 24.6179 12.667 24.6227 12.672 24.6261C12.6745 24.6278 12.6764 24.6291 12.6778 24.63C12.6785 24.6305 12.6791 24.6309 12.6795 24.6311C12.6797 24.6313 12.6799 24.6314 12.6801 24.6315C12.6802 24.6316 12.6804 24.6317 12.9577 24.2157ZM12.9577 14.5706C14.9148 14.5706 16.5013 12.9841 16.5013 11.0271H15.5013C15.5013 12.4318 14.3625 13.5706 12.9577 13.5706V14.5706ZM9.4142 11.0271C9.4142 12.9841 11.0007 14.5706 12.9577 14.5706V13.5706C11.553 13.5706 10.4142 12.4318 10.4142 11.0271H9.4142ZM12.9577 7.48354C11.0007 7.48354 9.4142 9.07003 9.4142 11.0271H10.4142C10.4142 9.62231 11.553 8.48354 12.9577 8.48354V7.48354ZM16.5013 11.0271C16.5013 9.07003 14.9148 7.48354 12.9577 7.48354V8.48354C14.3625 8.48354 15.5013 9.62231 15.5013 11.0271H16.5013Z" fill="#6050B3"/>
</svg>
